HIERARCHY
ROOT hip
{
  OFFSET 0 0 0
  CHANNELS 6 Xposition Yposition Zposition Zrotation Yrotation Xrotation
  JOINT abdomen
  {
    OFFSET 0 20.6881 -0.73152
    CHANNELS 3 Zrotation Xrotation Yrotation
    JOINT chest
    {
      OFFSET 0 11.7043 -0.48768
      CHANNELS 3 Zrotation Xrotation Yrotation
      JOINT neck
      {
        OFFSET 0 22.1894 -2.19456
        CHANNELS 3 Zrotation Xrotation Yrotation
        JOINT head
        {
          OFFSET -0.24384 7.07133 1.2192
          CHANNELS 3 Zrotation Xrotation Yrotation
          JOINT leftEye
          {
            OFFSET 4.14528 8.04674 8.04672
            CHANNELS 3 Zrotation Xrotation Yrotation
            End Site
            {
              OFFSET 1 0 0
            }
          }
          JOINT rightEye
          {
            OFFSET -3.6576 8.04674 8.04672
            CHANNELS 3 Zrotation Xrotation Yrotation
            End Site
            {
              OFFSET 1 0 0
            }
          }
        }
      }
      JOINT rCollar
      {
        OFFSET -2.68224 19.2634 -4.8768
        CHANNELS 3 Zrotation Xrotation Yrotation
        JOINT rShldr
        {
          OFFSET -8.77824 -1.95073 1.46304
          CHANNELS 3 Zrotation Xrotation Yrotation
          JOINT rForeArm
          {
            OFFSET -28.1742 -1.7115 0.48768
            CHANNELS 3 Zrotation Xrotation Yrotation
            JOINT rHand
            {
              OFFSET -22.5879 0.773209 7.07136
              CHANNELS 3 Zrotation Xrotation Yrotation
              JOINT rThumb1
              {
                OFFSET -1.2192 -0.487915 3.41376
                CHANNELS 3 Zrotation Xrotation Yrotation
                JOINT rThumb2
                {
                  OFFSET -3.37035 -0.52449 3.41376
                  CHANNELS 3 Zrotation Xrotation Yrotation
                  End Site
                  {
                    OFFSET -1.78271 -1.18214 1.43049
                  }
                }
              }
              JOINT rIndex1
              {
                OFFSET -7.75947 0.938293 5.60832
                CHANNELS 3 Zrotation Xrotation Yrotation
                JOINT rIndex2
                {
                  OFFSET -2.54057 -0.884171 1.56538
                  CHANNELS 3 Zrotation Xrotation Yrotation
                  End Site
                  {
                    OFFSET -1.62519 -0.234802 1.16502
                  }
                }
              }
              JOINT rMid1
              {
                OFFSET -8.24714 1.18213 3.41376
                CHANNELS 3 Zrotation Xrotation Yrotation
                JOINT rMid2
                {
                  OFFSET -3.10165 -0.590103 1.0647
                  CHANNELS 3 Zrotation Xrotation Yrotation
                  End Site
                  {
                    OFFSET -2.48547 -0.328903 0.83742
                  }
                }
              }
              JOINT rRing1
              {
                OFFSET -8.82822 0.546677 1.51678
                CHANNELS 3 Zrotation Xrotation Yrotation
                JOINT rRing2
                {
                  OFFSET -2.60934 -0.819778 -0.0198488
                  CHANNELS 3 Zrotation Xrotation Yrotation
                  End Site
                  {
                    OFFSET -2.33842 -0.294052 0.168128
                  }
                }
              }
              JOINT rPinky1
              {
                OFFSET -8.27202 -0.0477905 -0.4584
                CHANNELS 3 Zrotation Xrotation Yrotation
                JOINT rPinky2
                {
                  OFFSET -1.82734 -0.647385 -0.700984
                  CHANNELS 3 Zrotation Xrotation Yrotation
                  End Site
                  {
                    OFFSET -1.69225 -0.51767 -0.607171
                  }
                }
              }
            }
          }
        }
      }
      JOINT lCollar
      {
        OFFSET 2.68224 19.2634 -4.8768
        CHANNELS 3 Zrotation Xrotation Yrotation
        JOINT lShldr
        {
          OFFSET 8.77824 -1.95073 1.46304
          CHANNELS 3 Zrotation Xrotation Yrotation
          JOINT lForeArm
          {
            OFFSET 28.1742 -1.7115 0.48768
            CHANNELS 3 Zrotation Xrotation Yrotation
            JOINT lHand
            {
              OFFSET 22.5879 0.773209 7.07136
              CHANNELS 3 Zrotation Xrotation Yrotation
              JOINT lThumb1
              {
                OFFSET 1.2192 -0.487915 3.41376
                CHANNELS 3 Zrotation Xrotation Yrotation
                JOINT lThumb2
                {
                  OFFSET 3.37035 -0.52449 3.41376
                  CHANNELS 3 Zrotation Xrotation Yrotation
                  End Site
                  {
                    OFFSET 1.78271 -1.18214 1.43049
                  }
                }
              }
              JOINT lIndex1
              {
                OFFSET 7.75947 0.938293 5.60832
                CHANNELS 3 Zrotation Xrotation Yrotation
                JOINT lIndex2
                {
                  OFFSET 2.54057 -0.884171 1.56538
                  CHANNELS 3 Zrotation Xrotation Yrotation
                  End Site
                  {
                    OFFSET 1.62519 -0.234802 1.16502
                  }
                }
              }
              JOINT lMid1
              {
                OFFSET 8.24714 1.18213 3.41376
                CHANNELS 3 Zrotation Xrotation Yrotation
                JOINT lMid2
                {
                  OFFSET 3.10165 -0.590103 1.0647
                  CHANNELS 3 Zrotation Xrotation Yrotation
                  End Site
                  {
                    OFFSET 2.48547 -0.328903 0.83742
                  }
                }
              }
              JOINT lRing1
              {
                OFFSET 8.82822 0.546677 1.51678
                CHANNELS 3 Zrotation Xrotation Yrotation
                JOINT lRing2
                {
                  OFFSET 2.60934 -0.819778 -0.0198488
                  CHANNELS 3 Zrotation Xrotation Yrotation
                  End Site
                  {
                    OFFSET 2.33842 -0.294052 0.168128
                  }
                }
              }
              JOINT lPinky1
              {
                OFFSET 8.27202 -0.0477905 -0.4584
                CHANNELS 3 Zrotation Xrotation Yrotation
                JOINT lPinky2
                {
                  OFFSET 1.82734 -0.647385 -0.700984
                  CHANNELS 3 Zrotation Xrotation Yrotation
                  End Site
                  {
                    OFFSET 1.69225 -0.51767 -0.607171
                  }
                }
              }
            }
          }
        }
      }
    }
  }
  JOINT rButtock
  {
    OFFSET -8.77824 4.35084 1.2192
    CHANNELS 3 Zrotation Xrotation Yrotation
    JOINT rThigh
    {
      OFFSET 0 -1.70687 -2.19456
      CHANNELS 3 Zrotation Xrotation Yrotation
      JOINT rShin
      {
        OFFSET 0 -36.8199 0.73152
        CHANNELS 3 Zrotation Xrotation Yrotation
        JOINT rFoot
        {
          OFFSET 0.73152 -45.1104 -5.12064
          CHANNELS 3 Zrotation Xrotation Yrotation
          End Site
          {
            OFFSET -1.1221 -3.69964 12.103
          }
        }
      }
    }
  }
  JOINT lButtock
  {
    OFFSET 8.77824 4.35084 1.2192
    CHANNELS 3 Zrotation Xrotation Yrotation
    JOINT lThigh
    {
      OFFSET 0 -1.70687 -2.19456
      CHANNELS 3 Zrotation Xrotation Yrotation
      JOINT lShin
      {
        OFFSET 0 -36.8199 0.73152
        CHANNELS 3 Zrotation Xrotation Yrotation
        JOINT lFoot
        {
          OFFSET -0.73152 -45.1104 -5.12064
          CHANNELS 3 Zrotation Xrotation Yrotation
          End Site
          {
            OFFSET 1.1221 -3.69964 12.103
          }
        }
      }
    }
  }
}
MOTION
Frames:	4
Frame Time:	0.00833333
98.7838 85.1388 128.561 0.0 0.0 0.0 0.410561 -0.00336362 0.0117798 0.113451 -0.00539418 0.0196579 5.65199e-15 7.95139e-16 -6.83322e-17 1.70023e-14 9.54166e-15 -1.84808e-16 -0.0 0.0 0.0 -0.0 0.0 0.0 2.88107e-15 -1.2424e-17 4.96962e-17 6.20171e-14 -3.91357e-16 7.95139e-16 1.02866e-12 -3.16863e-13 -4.13472e-14 1.17604e-11 2.57501e-13 -7.31528e-14 2.77405e-11 -1.30564e-13 -2.44903e-13 4.78972e-11 -2.29e-13 -4.36531e-13 2.7746e-11 -1.308e-13 -2.48083e-13 7.73091 5.47488 0.417314 2.77413e-11 -1.30999e-13 -2.44903e-13 2.90554 0.965183 0.102902 2.77476e-11 -1.308e-13 -2.53649e-13 10.2786 0.731801 0.0259123 2.77321e-11 -1.27222e-13 -2.54444e-13 2.22167 -0.733487 -0.20892 2.78447e-15 -1.2424e-17 -1.49089e-16 5.84835e-14 -3.10601e-16 -1.39149e-15 1.02603e-12 2.96587e-13 9.54166e-15 1.17607e-11 -3.59726e-13 -1.33583e-13 2.77412e-11 -1.38343e-13 -2.63986e-13 4.79147e-11 -2.41722e-13 -4.44483e-13 2.77352e-11 -1.37559e-13 -2.48083e-13 -7.73091 5.47488 -0.417314 2.77413e-11 -1.38454e-13 -2.60805e-13 -2.90554 0.965183 -0.102902 2.77335e-11 -1.38553e-13 -2.5524e-13 -10.2786 0.731801 -0.0259123 2.77452e-11 -1.33583e-13 -2.48083e-13 -2.22167 -0.733487 0.20892 -2.03217e-16 0.0 -3.88251e-19 0.771186 -4.17174 -0.0657016 -0.00265901 2.0054 -0.0183074 -0.462432 2.16694 0.0961819 2.03217e-16 0.0 3.88251e-19 -0.142654 -2.55999 0.0260558 0.00715899 -0.914028 0.0621348 0.453172 3.47455 -0.121138
98.8151 83.797 124.992 177.285 -3.6127 -154.137 -1.58606 -8.43374 -1.0612 1.28117 4.41006 -0.413418 -0.246634 3.32787 -0.135513 2.11236 -3.12014 -0.450846 -0.0 0.0 0.0 -0.0 0.0 0.0 -3.25951e-15 3.25167e-14 4.72063e-14 22.7673 0.622891 -1.65313 -4.56467 -2.14758 7.04803 5.57485e-05 -0.167412 -0.0235279 -1.67114e-10 6.98664e-10 -8.06429e-11 -2.89625e-10 1.20913e-09 -1.38612e-10 -1.67106e-10 6.9867e-10 -8.06478e-11 7.73091 5.47488 0.417314 -1.67113e-10 6.98664e-10 -8.06429e-11 2.90554 0.965183 0.102902 -1.67107e-10 6.98664e-10 -8.06499e-11 10.2786 0.731801 0.0259123 -1.6712e-10 6.98667e-10 -8.06491e-11 2.22167 -0.733487 -0.20892 -3.32467e-15 3.25176e-14 4.70165e-14 -21.2973 4.93048 -0.499651 3.05494 -1.2165 -4.9417 -0.00313367 1.24756 -0.175185 -1.99462e-10 -1.36858e-10 4.33469e-10 -3.42625e-10 -2.36259e-10 7.50347e-10 -1.99467e-10 -1.36858e-10 4.33481e-10 -7.73091 5.47488 -0.417314 -1.99462e-10 -1.36858e-10 4.3347e-10 -2.90554 0.965183 -0.102902 -1.9947e-10 -1.36858e-10 4.33475e-10 -10.2786 0.731801 -0.0259123 -1.99459e-10 -1.36854e-10 4.33478e-10 -2.22167 -0.733487 0.20892 -2.03217e-16 0.0 -3.88251e-19 1.05903 -11.9778 1.40837 0.00436356 4.10605 0.0448191 -0.658377 -1.98447 -0.464596 2.03217e-16 0.0 3.88251e-19 -1.03146 -9.03427 -1.98439 0.0117548 0.88005 0.0550475 0.599385 2.05048 -0.591962
98.8368 83.8011 124.981 177.329 -3.6269 -154.115 -4.05352 -17.3374 -2.27828 2.59214 9.07708 -0.881133 -0.486709 6.84231 -0.280271 4.28135 -6.41575 -0.932621 -0.0 0.0 0.0 -0.0 0.0 0.0 -8.39771e-15 6.97672e-14 1.01582e-13 46.8706 1.28382 -3.39823 -8.82156 -4.31047 14.5322 -3.61669e-05 -0.347207 -0.0487967 -4.15563e-10 1.50715e-09 -1.79756e-10 -7.19889e-10 2.60833e-09 -3.08993e-10 -4.15554e-10 1.50717e-09 -1.79763e-10 7.73091 5.47488 0.417314 -4.15564e-10 1.50715e-09 -1.79756e-10 2.90554 0.965183 0.102902 -4.15557e-10 1.50715e-09 -1.79761e-10 10.2786 0.731801 0.0259123 -4.15568e-10 1.50716e-09 -1.79759e-10 2.22167 -0.733487 -0.20892 -8.43122e-15 6.9769e-14 1.01399e-13 -43.717 10.1547 -1.04601 6.06189 -2.47506 -10.1805 0.00185683 2.55251 -0.358713 -4.85444e-10 -3.03613e-10 9.2758e-10 -8.34427e-10 -5.2417e-10 1.60582e-09 -4.85449e-10 -3.03614e-10 9.27588e-10 -7.73091 5.47488 -0.417314 -4.85443e-10 -3.03614e-10 9.27577e-10 -2.90554 0.965183 -0.102902 -4.85452e-10 -3.03613e-10 9.27582e-10 -10.2786 0.731801 -0.0259123 -4.85442e-10 -3.0361e-10 9.27581e-10 -2.22167 -0.733487 0.20892 -2.03217e-16 0.0 -3.88251e-19 1.82717 -20.2096 3.09368 0.0067316 6.32432 0.111966 -0.954565 -6.37047 -1.06515 2.03217e-16 0.0 3.88251e-19 -2.48274 -15.8496 -4.21988 0.017084 2.7765 0.0476221 0.728486 0.545739 -1.09108
98.826 83.793 124.997 177.386 -3.5943 -154.052 -6.61086 -25.2573 -3.50849 3.82145 13.238 -1.31073 -0.692057 9.98338 -0.412093 6.1881 -9.35809 -1.36875 -0.0 0.0 0.0 -0.0 0.0 0.0 -1.55407e-14 9.7575e-14 1.4152e-13 68.4095 1.86245 -4.96172 -12.1415 -6.05362 21.2534 -0.000245242 -0.502235 -0.070586 -5.56822e-10 2.09625e-09 -2.41439e-10 -9.64669e-10 3.62784e-09 -4.14962e-10 -5.56811e-10 2.09627e-09 -2.41447e-10 7.73091 5.47488 0.417314 -5.56823e-10 2.09625e-09 -2.41439e-10 2.90554 0.965183 0.102902 -5.56815e-10 2.09625e-09 -2.41442e-10 10.2786 0.731801 0.0259123 -5.56825e-10 2.09625e-09 -2.41438e-10 2.22167 -0.733487 -0.20892 -1.5543e-14 9.75776e-14 1.41348e-13 -63.6264 14.7869 -1.54457 8.54208 -3.54107 -14.8508 0.0135272 3.74253 -0.526554 -6.53869e-10 -4.10296e-10 1.30094e-09 -1.1237e-09 -7.08293e-10 2.25193e-09 -6.53873e-10 -4.10298e-10 1.30094e-09 -7.73091 5.47488 -0.417314 -6.53867e-10 -4.10298e-10 1.30093e-09 -2.90554 0.965183 -0.102902 -6.53877e-10 -4.10297e-10 1.30093e-09 -10.2786 0.731801 -0.0259123 -6.53867e-10 -4.10295e-10 1.30093e-09 -2.22167 -0.733487 0.20892 -2.03217e-16 0.0 -3.88251e-19 2.97427 -27.5176 4.80931 0.00439202 8.30733 0.172515 -1.29695 -10.2835 -1.61106 2.03217e-16 0.0 3.88251e-19 -4.2622 -21.875 -6.39338 0.0222716 4.46821 0.0409938 0.82162 -0.797062 -1.53307
